<?xml version="1.0" standalone="no"?>
<!DOCTYPE svg PUBLIC "-//W3C//DTD SVG 20010904//EN"
 "http://www.w3.org/TR/2001/REC-SVG-20010904/DTD/svg10.dtd">
<svg version="1.0" xmlns="http://www.w3.org/2000/svg"
 width="500.000000pt" height="500.000000pt" viewBox="0 0 500.000000 500.000000"
 preserveAspectRatio="xMidYMid meet">
<metadata>
Created by potrace 1.14, written by Peter Selinger 2001-2017
</metadata>
<g transform="translate(0.000000,500.000000) scale(0.100000,-0.100000)"
fill="#000000" stroke="none">
<path d="M3289 4206 c-2 -2 -65 -7 -139 -11 -74 -4 -151 -8 -170 -10 -19 -2
-96 -6 -170 -10 -74 -4 -151 -8 -170 -10 -19 -2 -91 -6 -160 -9 -69 -4 -147
-9 -175 -11 -27 -2 -95 -7 -150 -10 -170 -10 -267 -15 -350 -20 -196 -13 -235
-15 -325 -20 -301 -17 -403 -32 -564 -86 -337 -112 -532 -301 -511 -494 8 -78
33 -133 87 -191 122 -132 346 -225 608 -252 116 -12 485 -5 645 13 17 2 91 6
165 10 74 3 151 8 170 10 19 2 89 7 155 10 66 3 147 8 180 10 108 7 228 15
330 20 55 3 127 8 160 10 33 2 110 7 170 10 61 3 135 8 165 10 30 3 105 7 165
11 390 21 764 193 881 406 24 44 29 66 31 131 2 87 -15 142 -67 207 -91 115
-320 227 -525 256 -27 3 -59 9 -70 11 -25 6 -360 14 -366 9z"/>
<path d="M1287 2804 c-1 -1 -65 -4 -143 -7 -77 -3 -147 -9 -155 -11 -7 -3 -32
-8 -54 -10 -22 -2 -51 -6 -65 -10 -14 -3 -65 -15 -114 -26 -110 -26 -204 -63
-276 -108 -73 -45 -98 -69 -122 -116 -92 -179 218 -357 702 -404 187 -18 2557
-7 2589 12 3 2 28 7 55 10 50 7 113 21 221 51 83 22 211 86 263 130 129 112
94 239 -94 337 -70 36 -207 84 -272 94 -19 3 -45 10 -58 14 -12 5 -48 12 -81
16 -32 3 -61 8 -65 10 -19 12 -371 16 -1301 18 -566 0 -1029 0 -1030 0z"/>
<path d="M3350 1819 c-36 -4 -101 -9 -145 -13 -44 -3 -129 -10 -190 -16 -141
-13 -181 -16 -405 -35 -102 -8 -205 -17 -230 -20 -72 -7 -193 -17 -350 -30
-36 -3 -114 -10 -175 -15 -60 -6 -137 -13 -170 -15 -33 -3 -130 -12 -215 -19
-85 -8 -162 -14 -170 -13 -28 0 -195 -24 -235 -35 -22 -5 -51 -12 -65 -14 -14
-3 -70 -18 -125 -35 -196 -61 -359 -154 -439 -252 -113 -138 -58 -295 140
-395 77 -39 240 -86 341 -97 26 -3 79 -9 117 -14 75 -9 241 -7 351 3 81 7 489
43 585 51 36 3 81 7 100 10 19 2 76 7 125 10 50 3 101 8 115 10 14 2 66 7 115
10 50 3 101 8 115 10 14 2 66 7 115 10 50 4 101 8 115 10 14 2 66 6 115 10 50
3 108 8 130 10 40 4 84 9 220 20 62 5 197 19 292 30 18 2 40 6 50 9 10 3 31 7
46 10 16 3 70 17 120 32 274 80 456 193 523 326 54 106 14 210 -114 297 -79
53 -198 99 -302 116 -19 3 -42 8 -51 11 -71 21 -332 34 -449 23z"/>
</g>
</svg>
